{"title":"JAY Z Ft. Justin Timberlake - Holy Grail [Music Video] 720p [Sby","uid":8885804,"size":66939357,"categoryP":"video","categoryS":"music_videos","magnet":"?xt=urn:btih:753feef96d7320b5c96ec2e9470f4000804b156f&amp;dn=JAY+Z+Ft.+Justin+Timberlake+-+Holy+Grail+%5BMusic+Video%5D+720p+%5BSby&amp;tr=udp%3A%2F%2Ftracker.openbittorrent.com%3A80&amp;tr=udp%3A%2F%2Fopen.demonii.com%3A1337&amp;tr=udp%3A%2F%2Ftracker.coppersurfer.tk%3A6969&amp;tr=udp%3A%2F%2Fexodus.desync.com%3A6969","seeders":5,"leechers":0,"uploader":"Sbyky","files":-1,"time":1378455146,"description":"[IMG]http://yuq.me/users/18/139/cnvtg8Hs9r.png[/IMG]\n\nGeneral\nComplete name                            : JAY Z Ft. Justin Timberlake - Holy Grail [Music Video] 720p [Sbyky].MP4\nFormat                                   : MPEG-4\nFormat profile                           : Base Media / Version 2\nCodec ID                                 : mp42\nFile size                                : 63.8 MiB\nDuration                                 : 5mn 8s\nOverall bit rate mode                    : Variable\nOverall bit rate                         : 1 735 Kbps\nEncoded date                             : UTC 2013-08-30 05:31:46\nTagged date                              : UTC 2013-08-30 05:31:46\n\nVideo\nID                                       : 1\nFormat                                   : AVC\nFormat/Info                              : Advanced Video Codec\nFormat profile                           : &lt;a class=&quot;__cf_email__&quot; href=&quot;/cdn-cgi/l/email-protection&quot; data-cfemail=&quot;b4fcddd3dcf4f8879a85&quot;&gt;[email&amp;#160;protected]&lt;/a&gt;&lt;script cf-hash='f9e31' type=&quot;text/javascript&quot;&gt;\n/* &lt;![CDATA[ */!function(){try{var t=&quot;currentScript&quot;in document?document.currentScript:function(){for(var t=document.getElementsByTagName(&quot;script&quot;),e=t.length;e--;)if(t[e].getAttribute(&quot;cf-hash&quot;))return t[e]}();if(t&amp;&amp;t.previousSibling){var e,r,n,i,c=t.previousSibling,a=c.getAttribute(&quot;data-cfemail&quot;);if(a){for(e=&quot;&quot;,r=parseInt(a.substr(0,2),16),n=2;a.length-n;n+=2)i=parseInt(a.substr(n,2),16)^r,e+=String.fromCharCode(i);e=document.createTextNode(e),c.parentNode.replaceChild(e,c)}}}catch(u){}}();/* ]]&gt; */&lt;/script&gt;\nFormat settings, CABAC                   : Yes\nFormat settings, ReFrames                : 1 frame\nCodec ID                                 : avc1\nCodec ID/Info                            : Advanced Video Coding\nDuration                                 : 5mn 8s\nBit rate                                 : 1 541 Kbps\nMaximum bit rate                         : 15.2 Mbps\nWidth                                    : 1 280 pixels\nHeight                                   : 720 pixels\nDisplay aspect ratio                     : 16:9\nFrame rate mode                          : Constant\nFrame rate                               : 23.976 fps\nColor space                              : YUV\nChroma subsampling                       : 4:2:0\nBit depth                                : 8 bits\nScan type                                : Progressive\nBits/(Pixel*Frame)                       : 0.070\nStream size                              : 56.7 MiB (89%)\nTagged date                              : UTC 2013-08-30 05:31:58\n\nAudio\nID                                       : 2\nFormat                                   : AAC\nFormat/Info                              : Advanced Audio Codec\nFormat profile                           : LC\nCodec ID                                 : 40\nDuration                                 : 5mn 8s\nBit rate mode                            : Variable\nBit rate                                 : 192 Kbps\nMaximum bit rate                         : 201 Kbps\nChannel(s)                               : 2 channels\nChannel positions                        : Front: L R\nSampling rate                            : 44.1 KHz\nCompression mode                         : Lossy\nStream size                              : 7.06 MiB (11%)\nTitle                                    : IsoMedia File Produced by Google, 5-11-2011\nEncoded date                             : UTC 2013-08-30 05:31:53\nTagged date                              : UTC 2013-08-30 05:31:58\n\nShared By Sbyky\n[IMG]http://yuq.me/users/18/139/0aq32UMZvX.gif[/IMG]\n[IMG]http://yuq.me/users/18/139/bQg62viaEG.gif[/IMG]","torrent":{"xt":"urn:btih:753feef96d7320b5c96ec2e9470f4000804b156f","amp;dn":"JAY+Z+Ft.+Justin+Timberlake+-+Holy+Grail+%5BMusic+Video%5D+720p+%5BSby","amp;tr":["udp%3A%2F%2Ftracker.openbittorrent.com%3A80","udp%3A%2F%2Fopen.demonii.com%3A1337","udp%3A%2F%2Ftracker.coppersurfer.tk%3A6969","udp%3A%2F%2Fexodus.desync.com%3A6969"],"infoHash":"753feef96d7320b5c96ec2e9470f4000804b156f","infoHashBuffer":{"type":"Buffer","data":[117,63,238,249,109,115,32,181,201,110,194,233,71,15,64,0,128,75,21,111]},"announce":[],"urlList":[]}}